<svg xmlns="http://www.w3.org/2000/svg" x="0px" y="0px"
width="64" height="64"
viewBox="0 0 172 172"
style=" fill:#000000;"><g fill="none" fill-rule="nonzero" stroke="none" stroke-width="1" stroke-linecap="butt" stroke-linejoin="miter" stroke-miterlimit="10" stroke-dasharray="" stroke-dashoffset="0" font-family="none" font-weight="none" font-size="none" text-anchor="none" style="mix-blend-mode: normal"><path d="M0,172v-172h172v172z" fill="none"></path><path d="M85.14,86.86v-1.72h1.72v1.72z" fill="#000000"></path><g id="Layer_1"><path d="M34.26137,34.26484c-28.57294,28.57394 -28.57213,74.90064 0.00181,103.47358c28.57394,28.57294 74.90064,28.57213 103.47358,-0.00181c28.57294,-28.57394 28.57213,-74.90064 -0.00181,-103.47358c-28.57394,-28.57294 -74.90064,-28.57213 -103.47358,0.00181z" fill="#ffffff"></path><path d="M86,163.15812c-19.82157,0 -39.51011,-7.58275 -54.54257,-22.61521c-14.63337,-14.50034 -22.61521,-33.92282 -22.61521,-54.54257c0,-20.61975 7.98184,-40.04223 22.61521,-54.54257c30.06493,-30.06493 79.02022,-30.06493 109.08515,0v0v0c14.63337,14.63337 22.61521,33.92282 22.61521,54.54257c0,20.61975 -7.98184,40.04223 -22.61521,54.54257c-15.03247,15.03247 -34.72101,22.61521 -54.54257,22.61521zM86,16.82439c-17.69308,0 -35.38616,6.78456 -48.95529,20.22066c-13.03701,13.17004 -20.22066,30.46402 -20.22066,48.95529c0,18.49126 7.18366,35.78525 20.22066,48.95529c27.00523,27.00523 70.90535,27.00523 97.77754,0c13.17004,-13.17004 20.35369,-30.46402 20.35369,-48.95529c0,-18.49126 -7.18366,-35.78525 -20.22066,-48.95529v0c-13.56913,-13.4361 -31.26221,-20.22066 -48.95529,-20.22066z" fill="#34495e"></path><path d="M115.39978,83.20669l-19.9546,-19.9546c-1.59637,-1.59637 -4.12395,-1.59637 -5.58729,0c-1.59637,1.59637 -1.59637,4.12395 0,5.58729l13.17004,13.17004h-40.97345c-2.26152,0 -3.99092,1.7294 -3.99092,3.99092c0,2.26152 1.7294,3.99092 3.99092,3.99092h40.97345l-13.17004,13.17004c-1.59637,1.59637 -1.59637,4.12395 0,5.58729c0.79818,0.79818 1.86243,1.19728 2.79364,1.19728c0.93121,0 1.99546,-0.39909 2.79364,-1.19728l19.9546,-19.9546c1.59637,-1.59637 1.59637,-3.99092 0,-5.58729z" fill="#95a5a6"></path></g><path d="M0,172v-172h172v172z" fill="none"></path><path d="M3.44,168.56v-165.12h165.12v165.12z" fill="none"></path><path d="M1.72,170.28v-168.56h168.56v168.56z" fill="none"></path><path d="M5.16,166.84v-161.68h161.68v161.68z" fill="none"></path><path d="M2.58,169.42v-166.84h166.84v166.84z" fill="none"></path><path d="M6.02,165.98v-159.96h159.96v159.96z" fill="none"></path><path d="M3.44,168.56v-165.12h165.12v165.12z" fill="none"></path><path d="M6.88,165.12v-158.24h158.24v158.24z" fill="none"></path><path d="M5.16,166.84v-161.68h161.68v161.68z" fill="none"></path><path d="M8.6,163.4v-154.8h154.8v154.8z" fill="none"></path><path d="M7.74,164.26v-156.52h156.52v156.52z" fill="none"></path><path d="M11.18,160.82v-149.64h149.64v149.64z" fill="none"></path><path d="M19.78,152.22v-132.44h132.44v132.44z" fill="none"></path><path d="M23.22,148.78v-125.56h125.56v125.56z" fill="none"></path><path d="M39.56,132.44v-92.88h92.88v92.88z" fill="none"></path><path d="M43,129v-86h86v86z" fill="none"></path><path d="M48.16,123.84v-75.68h75.68v75.68z" fill="none"></path><path d="M51.6,120.4v-68.8h68.8v68.8z" fill="none"></path><path d="M58.48,113.52v-55.04h55.04v55.04z" fill="none"></path><path d="M61.92,110.08v-48.16h48.16v48.16z" fill="none"></path><path d="M74.82,97.18v-22.36h22.36v22.36z" fill="none"></path><path d="M78.26,93.74v-15.48h15.48v15.48z" fill="none"></path><path d="M79.98,92.02v-12.04h12.04v12.04z" fill="none"></path><path d="M83.42,88.58v-5.16h5.16v5.16z" fill="none"></path><path d="M72.24,99.76v-27.52h27.52v27.52z" fill="none"></path><path d="M75.68,96.32v-20.64h20.64v20.64z" fill="none"></path><path d="M61.92,110.08v-48.16h48.16v48.16z" fill="none"></path><path d="M65.36,106.64v-41.28h41.28v41.28z" fill="none"></path><path d="M51.6,120.4v-68.8h68.8v68.8z" fill="none"></path><path d="M55.04,116.96v-61.92h61.92v61.92z" fill="none"></path><path d="M40.42,131.58v-91.16h91.16v91.16z" fill="none"></path><path d="M43.86,128.14v-84.28h84.28v84.28z" fill="none"></path><path d="M34.4,137.6v-103.2h103.2v103.2z" fill="none"></path><path d="M37.84,134.16v-96.32h96.32v96.32z" fill="none"></path><path d="M28.38,143.62v-115.24h115.24v115.24z" fill="none"></path><path d="M31.82,140.18v-108.36h108.36v108.36z" fill="none"></path><path d="M18.06,153.94v-135.88h135.88v135.88z" fill="none"></path><path d="M21.5,150.5v-129h129v129z" fill="none"></path><path d="M9.46,162.54v-153.08h153.08v153.08z" fill="none"></path><path d="M12.9,159.1v-146.2h146.2v146.2z" fill="none"></path><path d="M4.3,167.7v-163.4h163.4v163.4z" fill="none"></path><path d="M7.74,164.26v-156.52h156.52v156.52z" fill="none"></path><path d="M0,172v-172h172v172z" fill="none"></path><path d="M3.44,168.56v-165.12h165.12v165.12z" fill="none"></path><path d="M5.16,166.84v-161.68h161.68v161.68z" fill="none"></path><path d="M8.6,163.4v-154.8h154.8v154.8z" fill="none"></path><path d="M22.36,149.64v-127.28h127.28v127.28z" fill="none"></path><path d="M25.8,146.2v-120.4h120.4v120.4z" fill="none"></path><path d="M47.3,124.7v-77.4h77.4v77.4z" fill="none"></path><path d="M50.74,121.26v-70.52h70.52v70.52z" fill="none"></path><path d="M74.82,97.18v-22.36h22.36v22.36z" fill="none"></path><path d="M78.26,93.74v-15.48h15.48v15.48z" fill="none"></path></g></svg>
